<svg width="5664" height="3685" viewBox="0 0 5664 3685" fill="none" xmlns="http://www.w3.org/2000/svg">
<path d="M1573.44 3012.39C1662.61 2911.56 1767.79 2724.31 1791.03 2583.76C1792.43 1729.21 1790.07 874.749 1792.16 20.2873C1741.11 19.1293 1639.55 16.1293 1579.38 19.1513C1579.81 143.015 1573.26 2321.97 1573.44 3012.39Z" fill="white"/>
<path d="M2195.37 2338.99C2212.45 2134.38 2209.01 1927.44 2205.47 1721.79C2197.86 1280.86 2190.26 839.93 2182.66 399C2180.18 255.335 2187.67 89.6081 2301.19 1.51614C2294.44 6.91714 1868.77 -8.22086 1862.72 7.03714C1858.11 18.6571 1897.31 55.3122 1904.67 67.6652C1918.59 91.0332 1928.42 116.634 1935.57 142.816C1950.61 197.89 1953.93 255.611 1954.74 312.44C1954.87 321.44 1954.91 330.441 1954.91 339.442C1954.84 996.259 1954.77 1653.08 1954.7 2309.89C1954.69 2429.1 1954.63 2548.89 1936.06 2666.65C1907.07 2850.35 1832.43 3026.68 1720.7 3175.36C1567.77 3378.88 1339.33 3530.87 1087.07 3565.16C847.743 3597.68 597.934 3521.4 409.99 3369.71C222.047 3218.01 69.91 2862.19 0 2672.66C18.361 3065.05 277.358 3436.3 639.273 3589.01C1001.19 3741.72 1447.85 3668.22 1741.75 3407.59C1967.13 3207.72 2096.86 2917.66 2156.24 2622.32C2175.08 2528.62 2187.44 2434.06 2195.37 2338.99Z" fill="white"/>
<path d="M5664 3316.78C5561.47 3542.47 5304.88 3665.61 5057.51 3681.81C4595.45 3712.06 4163.9 3434.4 3850.26 3093.76C3536.61 2753.12 3305.47 2344.48 3002.87 1994C2893.96 1867.86 2765.07 1743.48 2601.21 1713.14C2574.94 1708.27 2547.23 1706.08 2522.04 1714.96C2495.66 1724.27 2474.95 1744.65 2455.16 1764.41C2388.58 1830.92 2321.99 1897.45 2255.41 1963.97V1883.78L2363.86 1767.49L2372.45 1758.28C2393.25 1736.55 3368.2 698.418 3580.78 485.832C3704.59 354.277 3837.04 199.766 3823.33 19.6281C3965.66 15.5881 4084.63 19.13 4224.42 17.395C3607.08 485.905 3090.98 1072.37 2579.44 1654.56C2964.37 1692.01 3289.95 1959.42 3531.56 2261.41C3773.17 2563.4 3956.69 2909.72 4211.09 3201.03C4362.01 3373.84 4543.65 3529.61 4762.73 3597.72C5070.73 3693.48 5430.46 3588.27 5640.97 3344.75C5648.86 3335.62 5656.55 3326.29 5664 3316.78Z" fill="white"/>
<path d="M2372.45 1758.28L2363.86 1767.49C2366.68 1764.38 2369.55 1761.31 2372.45 1758.28Z" fill="white"/>
</svg>
